Coordinates
version=1
nRows=13
nColumns=36
inDegrees=yes

Units are S.I. units (second, meters, Newtons, ...)
If the header above contains a line with 'inDegrees', this indicates whether rotational values are in degrees (yes) or radians (no).

endheader
time	pelvis_tilt	pelvis_list	pelvis_rotation	pelvis_tx	pelvis_ty	pelvis_tz	hip_flexion_r	hip_adduction_r	hip_rotation_r	knee_angle_r	knee_angle_r_beta	ankle_angle_r	subtalar_angle_r	mtp_angle_r	hip_flexion_l	hip_adduction_l	hip_rotation_l	knee_angle_l	knee_angle_l_beta	ankle_angle_l	subtalar_angle_l	mtp_angle_l	lumbar_extension	lumbar_bending	lumbar_rotation	arm_flex_r	arm_add_r	arm_rot_r	elbow_flex_r	pro_sup_r	arm_flex_l	arm_add_l	arm_rot_l	elbow_flex_l	pro_sup_l
     11.83333330	    -12.57489026	     -0.39818850	     -0.65339575	      0.05679594	      0.86773806	     -0.03827336	     21.58067921	      1.00297057	      8.18168997	     14.92273395	      0.26045084	      5.02723363	    -18.71973851	     -7.49999987	     22.04134605	      1.38062280	      0.89948023	     15.68921270	      0.27382842	      1.07647594	    -20.05073882	     -7.49999987	      6.35828357	     -1.28612260	      1.77334581	     28.11623416	    -15.69946274	     21.42596292	     67.23504553	     82.63351904	     42.69694089	     -5.78837738	     27.57271313	     50.03362902	     77.75849613
     11.85000000	    -12.31088605	     -0.44349426	     -0.66749436	      0.05602135	      0.86910675	     -0.03674704	     21.12090160	      1.02348171	      7.92181200	     14.62594049	      0.25527082	      4.82578162	    -19.31603019	     -7.49999987	     21.71934893	      1.26279677	      0.88396349	     15.77319717	      0.27529422	      1.29085075	    -19.85672975	     -7.49999987	      6.42653912	     -1.16650251	      1.95944430	     29.01909967	    -15.48587428	     21.71541229	     66.77851933	     82.99630528	     43.85166682	     -5.21747811	     28.35841017	     48.62386484	     78.96764615
     11.86666670	    -11.79292178	     -0.47280949	     -0.65771914	      0.05776849	      0.86989811	     -0.03572533	     20.36090810	      1.01568801	      7.64959978	     14.37891922	      0.25095948	      4.49131482	    -20.03442245	     -7.49999987	     21.04054075	      1.17742208	      0.81616228	     15.76174648	      0.27509437	      1.44491946	    -19.83030761	     -7.49999987	      6.24369155	     -1.09426969	      2.04251857	     29.88883774	    -15.37506653	     21.69678241	     66.59624937	     84.04306551	     44.56679498	     -4.93731450	     28.95669024	     47.98106137	     81.13326967
     11.88333330	    -11.44084103	     -0.42569702	     -0.80369572	      0.05877301	      0.87175083	     -0.03452771	     19.81961924	      0.98341904	      7.29343824	     14.13721879	      0.24674101	      4.27642343	    -20.52538927	     -7.49999987	     20.41413646	      1.12465519	      0.81988020	     15.56724300	      0.27169965	      1.65510894	    -19.62565467	     -7.49999987	      6.26968823	     -1.03906155	      2.07267852	     30.82785024	    -15.11302454	     22.12306588	     66.10318068	     84.11359442	     44.99165183	     -4.86651740	     29.31520805	     47.42551600	     81.75588332
     11.90000000	    -10.96758212	     -0.39141608	     -0.98577417	      0.05985110	      0.87202869	     -0.03333749	     19.22986237	      0.98427390	      7.00690080	     13.98826900	      0.24414135	      4.30041881	    -20.74149308	     -7.49999987	     19.63337544	      1.07100684	      0.87316756	     15.37824640	      0.26840103	      1.97053557	    -19.51610400	     -7.49999987	      6.17288860	     -0.98974495	      1.99467617	     31.78105896	    -14.78527337	     22.61815387	     65.90536166	     83.83430705	     45.45936259	     -4.91398980	     29.55943113	     47.04002241	     81.69170702
     11.91666670	    -10.67425233	     -0.29050759	     -1.14708651	      0.06018864	      0.87371036	     -0.03229892	     18.85622285	      0.95686958	      6.84606895	     13.87313896	      0.24213195	      3.96835015	    -21.14214850	     -7.49999987	     19.08349757	      1.09325348	      0.90014632	     15.14780619	      0.26437909	      2.16725268	    -19.28734149	     -7.49999987	      6.26800655	     -1.01983148	      1.81434039	     32.93702687	    -14.47291795	     23.57826267	     65.19450219	     83.70375114	     45.86390636	     -5.11680206	     30.26933016	     46.49663838	     81.85854424
     11.93333330	    -10.32779224	     -0.17875357	     -1.35113109	      0.06108955	      0.87389856	     -0.03175135	     18.47943316	      0.92059124	      6.59678767	     13.83982832	      0.24155057	      3.65190002	    -21.31535044	     -7.49999987	     18.44949182	      1.11932032	      0.83435373	     14.84704044	      0.25912974	      2.17378525	    -19.05092848	     -7.49999987	      6.22002394	     -1.03207634	      1.81578637	     33.87087911	    -14.04137344	     24.26021259	     64.55344896	     83.27940010	     46.24354510	     -5.22426249	     30.64296532	     46.19402550	     81.60967223
     11.95000000	    -10.02810011	     -0.07634124	     -1.39592906	      0.06267776	      0.87484707	     -0.03101541	     18.09797057	      0.85200447	      6.29853467	     13.82154807	      0.24123152	      3.58766766	    -21.23983285	     -7.49999987	     17.92567966	      1.18190811	      0.86641715	     14.68575573	      0.25631479	      2.32154940	    -18.79885452	     -7.49999987	      6.36539792	     -0.95713115	      1.63548798	     35.33167962	    -13.61269451	     25.77864301	     62.84147498	     83.33813057	     46.65628865	     -5.29435178	     31.53283351	     45.16686608	     81.97586279
     11.96666670	     -9.82998162	      0.07338001	     -1.45287804	      0.06356289	      0.87801796	     -0.03031730	     17.75676460	      0.71423324	      5.97587565	     13.60770043	      0.23749918	      3.61870113	    -20.78463097	     -7.49999987	     17.39982660	      1.27753591	      0.80153649	     14.33034902	      0.25011177	      2.26837173	    -18.42259198	     -7.49999987	      6.43953198	     -0.93340819	      1.83729538	     36.18682825	    -13.31698463	     26.28264605	     61.95056019	     83.49923338	     46.86381596	     -4.99716251	     31.81283300	     44.65182753	     82.26340189
     11.98333330	     -9.28956797	      0.18689646	     -1.53478388	      0.06483297	      0.87940347	     -0.02814459	     16.97531297	      0.67420633	      5.91342127	     13.36341225	      0.23323554	      3.45255958	    -20.68308553	     -7.49999987	     16.54583459	      1.35033578	      0.89006662	     13.97966056	      0.24399111	      2.05181575	    -18.42951638	     -7.49999987	      6.17220813	     -0.86347049	      1.76397046	     37.32629648	    -12.74337627	     27.06916442	     60.63392430	     82.75621059	     47.12740810	     -4.77648050	     31.82265063	     43.97581744	     81.64100078
     12.00000000	     -9.08645671	      0.27699794	     -1.55596407	      0.06515785	      0.87846496	     -0.02679988	     16.65274116	      0.67323158	      5.81205901	     13.23607502	      0.23101309	      3.38029034	    -20.58955066	     -7.49999987	     16.22991283	      1.37349101	      0.90498652	     13.94901334	      0.24345621	      1.98339047	    -18.43787917	     -7.49999987	      6.36730596	     -0.72701401	      1.42562506	     39.03606325	    -12.04451699	     29.04437872	     58.31355574	     83.25697263	     47.55888540	     -4.73869038	     32.34737713	     42.58375713	     82.37655442
     12.01666670	     -8.92751573	      0.34611360	     -1.59811082	      0.06576632	      0.87724346	     -0.02488693	     16.44659003	      0.70599893	      5.65930802	     13.16480585	      0.22976921	      3.35045991	    -20.31532584	     -7.49999987	     15.95097888	      1.34466197	      0.76598016	     13.87607786	      0.24218325	      1.72668303	    -18.49921732	     -7.49999987	      6.50756130	     -0.53117163	      1.09587857	     40.74791163	    -11.43634154	     31.16345930	     56.42516550	     83.72048223	     47.74620587	     -5.02497781	     32.64637476	     42.41855644	     83.40597277
     12.03333330	     -8.53495182	      0.40896042	     -1.60856250	      0.06731365	      0.87837286	     -0.02349982	     15.93979402	      0.74584196	      5.51053798	     13.13701263	      0.22928412	      3.30971338	    -20.15861094	     -7.49999987	     15.46091767	      1.31034944	      0.64970064	     13.87423940	      0.24215116	      1.42551598	    -18.74163247	     -7.49999987	      6.15423822	     -0.49332374	      1.11215882	     41.79309006	    -11.06890404	     31.62601414	     55.70335389	     83.25717988	     48.05565308	     -4.91281159	     32.55431652	     42.29700751	     83.13334230
